<?xml version="1.0"?>
<svg xmlns="http://www.w3.org/2000/svg" viewBox="0 0 256 256" width="512" height="512"><path d="M69.472,33.488,74.247,40.9a3.735,3.735,0,0,0,2.167,1.583l8.658,2.332a3.733,3.733,0,0,1,1.889,6L81.356,57.5a3.737,3.737,0,0,0-.867,2.629l.552,8.947a3.733,3.733,0,0,1-5.136,3.686l-8.162-3.327a3.728,3.728,0,0,0-2.819,0l-8.162,3.327a3.733,3.733,0,0,1-5.136-3.686l.551-8.947a3.732,3.732,0,0,0-.866-2.629l-5.6-6.682a3.733,3.733,0,0,1,1.889-6l8.657-2.332A3.734,3.734,0,0,0,58.42,40.9L63.2,33.488A3.733,3.733,0,0,1,69.472,33.488Z" fill="#f0c020"/><path d="M131.138,9.821l4.775,7.411a3.738,3.738,0,0,0,2.168,1.583l8.657,2.332a3.734,3.734,0,0,1,1.89,6l-5.606,6.682a3.732,3.732,0,0,0-.866,2.629l.551,8.947a3.733,3.733,0,0,1-5.135,3.687l-8.162-3.328a3.737,3.737,0,0,0-2.819,0L118.429,49.1a3.733,3.733,0,0,1-5.136-3.687l.551-8.947a3.732,3.732,0,0,0-.866-2.629l-5.606-6.682a3.734,3.734,0,0,1,1.89-6l8.657-2.332a3.738,3.738,0,0,0,2.168-1.583l4.775-7.411A3.732,3.732,0,0,1,131.138,9.821Z" fill="#f0c020"/><path d="M192.805,33.488,197.58,40.9a3.734,3.734,0,0,0,2.168,1.583l8.657,2.332a3.733,3.733,0,0,1,1.889,6L204.689,57.5a3.732,3.732,0,0,0-.866,2.629l.551,8.947a3.733,3.733,0,0,1-5.136,3.686l-8.162-3.327a3.728,3.728,0,0,0-2.819,0L180.1,72.762a3.733,3.733,0,0,1-5.136-3.686l.552-8.947a3.741,3.741,0,0,0-.866-2.629l-5.606-6.682a3.733,3.733,0,0,1,1.889-6l8.658-2.332a3.732,3.732,0,0,0,2.167-1.583l4.775-7.411A3.733,3.733,0,0,1,192.805,33.488Z" fill="#f0c020"/><path d="M161.87,113.31H123.78a6.771,6.771,0,0,0-.25-3.52l-1.99-5.83a7.568,7.568,0,0,0,7.66-7.569,7.57,7.57,0,0,0,15.14,0,7.57,7.57,0,0,0,15.14,0v-7.2a7.57,7.57,0,0,0-15.14,0V84.33a7.57,7.57,0,0,0-15.14,0V76.76a7.57,7.57,0,1,0-15.14,0v7.57a7.575,7.575,0,0,0-15.15,0V95.07a11.857,11.857,0,0,0-1.69.24,12.245,12.245,0,0,0-9.62,10.641l-.82,7.359-.99,8.97a12.25,12.25,0,0,0,1.679,7.669c5.7,9.472,4.079,6.48,12.218,22.139a17.554,17.554,0,0,1,1.97,7.527v88.276H149.55V150.7a11,11,0,0,1,2.31-6.75l4.57-5.911C162.532,130.144,163.213,122.252,161.87,113.31Z" fill="#ffb69f"/><path d="M69.472,33.488,74.247,40.9a3.735,3.735,0,0,0,2.167,1.583l8.658,2.332a3.733,3.733,0,0,1,1.889,6L81.356,57.5a3.737,3.737,0,0,0-.867,2.629l.552,8.947a3.733,3.733,0,0,1-5.136,3.686l-8.162-3.327a3.728,3.728,0,0,0-2.819,0l-8.162,3.327a3.733,3.733,0,0,1-5.136-3.686l.551-8.947a3.732,3.732,0,0,0-.866-2.629l-5.6-6.682a3.733,3.733,0,0,1,1.889-6l8.657-2.332A3.734,3.734,0,0,0,58.42,40.9L63.2,33.488A3.733,3.733,0,0,1,69.472,33.488Z" fill="#f0c020"/><path d="M131.138,9.821l4.775,7.411a3.738,3.738,0,0,0,2.168,1.583l8.657,2.332a3.734,3.734,0,0,1,1.89,6l-5.606,6.682a3.732,3.732,0,0,0-.866,2.629l.551,8.947a3.733,3.733,0,0,1-5.135,3.687l-8.162-3.328a3.737,3.737,0,0,0-2.819,0L118.429,49.1a3.733,3.733,0,0,1-5.136-3.687l.551-8.947a3.732,3.732,0,0,0-.866-2.629l-5.606-6.682a3.734,3.734,0,0,1,1.89-6l8.657-2.332a3.738,3.738,0,0,0,2.168-1.583l4.775-7.411A3.732,3.732,0,0,1,131.138,9.821Z" fill="#f0c020"/><path d="M192.805,33.488,197.58,40.9a3.734,3.734,0,0,0,2.168,1.583l8.657,2.332a3.733,3.733,0,0,1,1.889,6L204.689,57.5a3.732,3.732,0,0,0-.866,2.629l.551,8.947a3.733,3.733,0,0,1-5.136,3.686l-8.162-3.327a3.728,3.728,0,0,0-2.819,0L180.1,72.762a3.733,3.733,0,0,1-5.136-3.686l.552-8.947a3.741,3.741,0,0,0-.866-2.629l-5.606-6.682a3.733,3.733,0,0,1,1.889-6l8.658-2.332a3.732,3.732,0,0,0,2.167-1.583l4.775-7.411A3.733,3.733,0,0,1,192.805,33.488Z" fill="#f0c020"/><path d="M244.23,80.27a9,9,0,0,0-11.66,5.1l-1.72,4.39a8.682,8.682,0,0,1-8.13,5.55H159.48v1.08a7.57,7.57,0,1,1-15.14,0,7.57,7.57,0,1,1-15.14,0,7.571,7.571,0,0,1-7.66,7.57l1.99,5.83a6.771,6.771,0,0,1,.25,3.52h69.56a16.168,16.168,0,0,1,29.32,0h.06a26.565,26.565,0,0,0,24.89-16.99c.63-1.58,1.72-4.39,1.72-4.39A9.023,9.023,0,0,0,244.23,80.27Z" fill="#fc5d3d"/><path d="M33.28,95.31a8.682,8.682,0,0,1-8.13-5.55l-1.72-4.39A9,9,0,0,0,6.66,91.93l1.72,4.39a26.581,26.581,0,0,0,24.96,16.99,16.168,16.168,0,0,1,29.32,0H86.78l.82-7.36a12.244,12.244,0,0,1,9.62-10.64Z" fill="#fc5d3d"/><path d="M64.17,120.12a16.174,16.174,0,1,1-1.51-6.81A15.979,15.979,0,0,1,64.17,120.12Z" fill="#7c7b7a"/><circle cx="48.005" cy="120.124" r="5.553" fill="#f0c020"/><path d="M84.8,196.34H11.21a7.373,7.373,0,0,0-2.23,14.4v13.83a20,20,0,0,0,20,20H67.03a20,20,0,0,0,20-20V210.74a7.373,7.373,0,0,0-2.23-14.4Z" fill="#f0c020"/><path d="M222.66,113.31a16.168,16.168,0,0,0-29.32,0,15.979,15.979,0,0,0-1.51,6.81,16.165,16.165,0,1,0,30.83-6.81Z" fill="#7c7b7a"/><path d="M244.79,196.34H171.2a7.373,7.373,0,0,0-2.23,14.4v13.83a20,20,0,0,0,20,20h38.05a20,20,0,0,0,20-20V210.74a7.373,7.373,0,0,0-2.23-14.4Z" fill="#f0c020"/><circle cx="207.995" cy="120.124" r="5.553" fill="#f0c020"/><path d="M139,241.167a2.5,2.5,0,0,1-2.5-2.5V233.5a2.5,2.5,0,0,1,5,0v5.167A2.5,2.5,0,0,1,139,241.167ZM139,226a2.5,2.5,0,0,1-2.5-2.5v-63a2.5,2.5,0,0,1,5,0v63A2.5,2.5,0,0,1,139,226Z" fill="#fbe0e2"/><path d="M67.026,237.688h-3.9a2.5,2.5,0,0,1,0-5h3.9a7.508,7.508,0,0,0,7.5-7.5V204.8a2.5,2.5,0,1,1,5,0v20.388A12.514,12.514,0,0,1,67.026,237.688Zm-13.9,0H50.667a2.5,2.5,0,0,1,0-5h2.458a2.5,2.5,0,0,1,0,5Z" fill="#f9e5af"/><path d="M227.341,237.688h-3.9a2.5,2.5,0,0,1,0-5h3.9a7.508,7.508,0,0,0,7.5-7.5V204.8a2.5,2.5,0,0,1,5,0v20.388A12.514,12.514,0,0,1,227.341,237.688Zm-13.9,0h-2.459a2.5,2.5,0,0,1,0-5h2.459a2.5,2.5,0,0,1,0,5Z" fill="#f9e5af"/><path d="M92.65,133.71a2.56,2.56,0,0,0-3.43-.86,2.5,2.5,0,1,0,3.43.86Z"/><path d="M101.91,150.93c-.752-1.438-1.752-3.341-4.36-8.38a2.5,2.5,0,1,0-4.44,2.32c.843,1.6,3.527,6.765,4.36,8.37a15.307,15.307,0,0,1,1.69,6.4v88.25a2.5,2.5,0,0,0,5,0V159.61l-.01-.08A20.2,20.2,0,0,0,101.91,150.93Z"/><path d="M48.01,112.07a8.055,8.055,0,1,0,8.05,8.05A8.066,8.066,0,0,0,48.01,112.07Zm0,11.11a3.055,3.055,0,1,1,3.05-3.06A3.073,3.073,0,0,1,48.01,123.18Z"/><circle cx="34.8" cy="196.34" r="2.5"/><path d="M254.66,203.71a9.882,9.882,0,0,0-9.87-9.87h-8.759l-9.386-74a18.652,18.652,0,0,0-.557-4.238,28.987,28.987,0,0,0,23.845-18.353c.631-1.585,1.724-4.4,1.725-4.4a11.516,11.516,0,0,0-6.516-14.9h0a11.514,11.514,0,0,0-14.9,6.517l-1.722,4.391a6.194,6.194,0,0,1-5.8,3.961H161.979V89.19a10.078,10.078,0,0,0-15.761-8.3,10.041,10.041,0,0,0-14.579-5.211,10.067,10.067,0,0,0-20.019,0A10.073,10.073,0,0,0,96.41,84.33v8.48H33.28a6.2,6.2,0,0,1-5.8-3.962l-1.72-4.389A11.5,11.5,0,0,0,4.333,92.842l1.719,4.389a29.027,29.027,0,0,0,23.861,18.363,18.636,18.636,0,0,0-.558,4.249l-9.385,74H11.21a9.868,9.868,0,0,0-4.73,18.53v12.2a22.525,22.525,0,0,0,22.5,22.5H67.03a22.525,22.525,0,0,0,22.5-22.5v-12.2A9.871,9.871,0,0,0,84.8,193.84H76.041l-9.387-74.017a18.514,18.514,0,0,0-.5-4.013H83.987l-.687,6.2a15.289,15.289,0,0,0,.23,4.66,2.526,2.526,0,0,0,2.96,1.93,2.488,2.488,0,0,0,1.93-2.96,9.683,9.683,0,0,1-.15-3.08l1.82-16.33a9.728,9.728,0,0,1,9.69-8.69h10.18a9.457,9.457,0,0,1,8.92,6.36l.01.01c.48,1.44.12.377,2.277,6.694A4.429,4.429,0,0,1,117,116.45h-3.332a35.431,35.431,0,0,0-5.488-11.26v-.02a2.571,2.571,0,0,0-3.52-.35,2.486,2.486,0,0,0-.36,3.51l.03.05c2.673,3.412,6.65,11.934,6.22,22.69a2.5,2.5,0,0,0,2.42,2.58.2.2,0,0,0,.08.01,2.5,2.5,0,0,0,2.5-2.42,46.4,46.4,0,0,0-.688-9.79h2.118a9.43,9.43,0,0,0,8.626-5.64h10.865c-2.946,4.661-6.034,11.344-6.072,18.92a24.387,24.387,0,0,0,1.031,7.13,2.5,2.5,0,1,0,4.78-1.44,19.819,19.819,0,0,1-.82-5.69c-.058-8.473,5.183-16.312,7.124-18.92H159.68c.874,7.979-.32,14.309-5.23,20.7l-4.57,5.91a13.591,13.591,0,0,0-2.83,8.28v97.19a2.5,2.5,0,0,0,5,0V150.7a8.556,8.556,0,0,1,1.78-5.22l4.58-5.91c5.677-7.308,7.187-14.946,6.286-23.76h25.149a18.512,18.512,0,0,0-.5,4.012l-9.388,74.018H171.2a9.868,9.868,0,0,0-4.73,18.53v12.2a22.525,22.525,0,0,0,22.5,22.5h38.051a22.526,22.526,0,0,0,22.5-22.5V212.375A9.824,9.824,0,0,0,254.66,203.71Zm-46.67-97.25a13.665,13.665,0,1,1-13.66,13.66A13.688,13.688,0,0,1,207.99,106.46ZM151.91,84.12a5.094,5.094,0,0,1,5.069,5.07v7.2a5.07,5.07,0,1,1-10.139,0v-7.2A5.1,5.1,0,0,1,151.91,84.12Zm-15.14-4.86a5.1,5.1,0,0,1,5.07,5.07V96.39a5.07,5.07,0,1,1-10.14,0V84.33A5.089,5.089,0,0,1,136.77,79.26Zm-20.21-2.5a5.07,5.07,0,0,1,10.14,0V96.39a5.021,5.021,0,0,1-3.514,4.791,14.757,14.757,0,0,0-6.626-7.041ZM61.67,120.12a13.665,13.665,0,1,1-13.66-13.66A13.68,13.68,0,0,1,61.67,120.12ZM84.53,224.57a17.519,17.519,0,0,1-17.5,17.5H28.98a17.52,17.52,0,0,1-17.5-17.5V213.581H84.53ZM44.8,198.84h40a4.87,4.87,0,0,1,0,9.74H11.21a4.87,4.87,0,0,1,0-9.74H24.8a2.494,2.494,0,0,0,.207-4.979l7.956-62.734a18.6,18.6,0,0,0,30.085,0L71,193.84H44.8a2.5,2.5,0,1,0,0,5Zm19.388-88.03a18.675,18.675,0,0,0-32.337-.041A24.082,24.082,0,0,1,10.708,95.408L8.989,91.021A6.5,6.5,0,0,1,21.1,86.282l1.719,4.389A11.167,11.167,0,0,0,33.28,97.81H88.463a15,15,0,0,0-3.353,7.87l-.569,5.13ZM101.41,92.54V84.33a5.075,5.075,0,0,1,10.15,0v8.3c-.385-.044-1.112-.09-1.6-.09Zm24.92,18.27a27.968,27.968,0,0,0-1.48-4.9,10.168,10.168,0,0,0,4.339-2.9,10.057,10.057,0,0,0,15.151.013,10.067,10.067,0,0,0,17.541-5.214H222.72a11.165,11.165,0,0,0,10.457-7.138l1.721-4.391A6.5,6.5,0,1,1,247,91.026s-1.084,2.8-1.718,4.385a24.061,24.061,0,0,1-21.134,15.355,18.675,18.675,0,0,0-32.335.044H126.33Zm66.623,20.318a18.594,18.594,0,0,0,30.083,0l7.954,62.713H185Zm51.568,93.442a17.52,17.52,0,0,1-17.5,17.5H188.97a17.519,17.519,0,0,1-17.5-17.5V213.581h73.051Zm.269-15.989H171.2a4.871,4.871,0,0,1,0-9.741h73.59a4.871,4.871,0,0,1,0,9.741Z"/><path d="M207.99,128.18a8.055,8.055,0,1,0-8.051-8.06A8.081,8.081,0,0,0,207.99,128.18Zm0-11.11a3.055,3.055,0,1,1-3.051,3.05A3.071,3.071,0,0,1,207.99,117.07Z"/><path d="M49.4,59.107a1.224,1.224,0,0,1,.286.868l-.551,8.947a6.235,6.235,0,0,0,8.575,6.155l8.161-3.327a1.223,1.223,0,0,1,.932,0l8.161,3.327a6.234,6.234,0,0,0,8.576-6.155l-.552-8.946a1.232,1.232,0,0,1,.287-.869l5.605-6.682A6.235,6.235,0,0,0,85.722,42.4l-8.658-2.331a1.233,1.233,0,0,1-.716-.523l-4.775-7.412a6.235,6.235,0,0,0-10.48,0l-4.775,7.412a1.231,1.231,0,0,1-.715.523L46.945,42.4A6.236,6.236,0,0,0,43.79,52.425ZM48.245,47.228,56.9,44.9a6.219,6.219,0,0,0,3.618-2.643L65.3,34.841a1.232,1.232,0,0,1,2.074,0l4.775,7.412A6.221,6.221,0,0,0,75.764,44.9l8.657,2.332a1.23,1.23,0,0,1,.624,1.983L79.44,55.894a6.208,6.208,0,0,0-1.446,4.389l.551,8.946a1.23,1.23,0,0,1-1.7,1.218L68.686,67.12a6.2,6.2,0,0,0-4.706,0l-8.163,3.327a1.231,1.231,0,0,1-1.7-1.218l.551-8.946a6.206,6.206,0,0,0-1.445-4.39l-5.606-6.682A1.231,1.231,0,0,1,48.245,47.228Z"/><path d="M114.55,35.71a2.484,2.484,0,0,0,.31-3.52,2.569,2.569,0,0,0-3.52-.31,2.5,2.5,0,1,0,3.21,3.83Z"/><path d="M107.56,28.36a2.5,2.5,0,0,0,1.5-3.2,1.336,1.336,0,0,1-.06-.4,1.216,1.216,0,0,1,.91-1.2l8.66-2.33a6.209,6.209,0,0,0,3.62-2.65l4.77-7.4a1.232,1.232,0,0,1,2.08,0l4.77,7.41a6.229,6.229,0,0,0,3.62,2.64l8.66,2.33a1.235,1.235,0,0,1,.62,1.99l-5.6,6.68a6.256,6.256,0,0,0-1.449,4.41l.55,8.93a1.24,1.24,0,0,1-1.7,1.21l-8.16-3.33a6.243,6.243,0,0,0-4.71.01l-8.15,3.32a1.24,1.24,0,0,1-1.71-1.15v-.01l.12-1.9a2.5,2.5,0,1,0-4.99-.31l-.11,1.85a6.235,6.235,0,0,0,8.57,6.15l8.16-3.33a1.246,1.246,0,0,1,.93,0l8.17,3.33a6.249,6.249,0,0,0,8.57-6.15l-.551-8.95a1.225,1.225,0,0,1,.29-.87l5.6-6.68a6.235,6.235,0,0,0-3.15-10.03l-8.661-2.33a1.255,1.255,0,0,1-.719-.52l-4.77-7.41a6.23,6.23,0,0,0-10.48,0l-4.77,7.41a1.257,1.257,0,0,1-.72.52l-8.66,2.33A6.225,6.225,0,0,0,104,24.76a6.123,6.123,0,0,0,.36,2.09A2.535,2.535,0,0,0,107.56,28.36Z"/><path d="M172.729,59.107a1.225,1.225,0,0,1,.287.868l-.552,8.947a6.234,6.234,0,0,0,8.574,6.155L189.2,71.75a1.228,1.228,0,0,1,.934,0l8.161,3.327a6.233,6.233,0,0,0,8.575-6.155l-.551-8.949a1.227,1.227,0,0,1,.286-.866l5.6-6.682A6.235,6.235,0,0,0,209.056,42.4L200.4,40.068a1.231,1.231,0,0,1-.715-.523l-4.776-7.412a6.234,6.234,0,0,0-10.479,0l-4.777,7.413a1.229,1.229,0,0,1-.714.522L170.278,42.4a6.235,6.235,0,0,0-3.154,10.026Zm-1.15-11.879,8.657-2.332a6.22,6.22,0,0,0,3.618-2.643l4.776-7.412a1.231,1.231,0,0,1,2.073,0l4.775,7.411A6.221,6.221,0,0,0,199.1,44.9l8.657,2.332a1.23,1.23,0,0,1,.624,1.983l-5.607,6.683a6.211,6.211,0,0,0-1.444,4.389l.551,8.946a1.232,1.232,0,0,1-1.7,1.218L192.02,67.12a6.2,6.2,0,0,0-4.707,0l-8.163,3.327a1.232,1.232,0,0,1-1.7-1.218l.552-8.947a6.208,6.208,0,0,0-1.446-4.389l-5.606-6.682A1.232,1.232,0,0,1,171.579,47.228Z"/></svg>
